<svg width="29" height="30" viewBox="0 0 29 30" fill="none" xmlns="http://www.w3.org/2000/svg">
<path d="M18.6891 14.718C18.6891 17.4199 16.5903 19.6235 14.0171 19.6235C11.4439 19.6235 9.34511 17.4199 9.34511 14.718C9.34511 12.0161 11.4439 9.81237 14.0171 9.81237C16.5903 9.81237 18.6891 12.0161 18.6891 14.718ZM21.2076 14.718C21.2076 10.5405 17.9956 7.16795 14.0171 7.16795C10.0386 7.16795 6.82662 10.5405 6.82662 14.718C6.82662 18.8954 10.0386 22.268 14.0171 22.268C17.9956 22.268 21.2076 18.8954 21.2076 14.718ZM23.1786 6.86135C23.1786 5.88407 22.4303 5.09841 21.4996 5.09841C20.5688 5.09841 19.8206 5.88407 19.8206 6.86135C19.8206 7.83864 20.5688 8.6243 21.4996 8.6243C22.4303 8.6243 23.1786 7.83864 23.1786 6.86135ZM14.0171 2.64562C16.0611 2.64562 20.4411 2.47315 22.2843 3.23965C22.9231 3.50792 23.3976 3.83369 23.8903 4.35107C24.3831 4.86846 24.6933 5.36668 24.9488 6.03737C25.6788 7.97277 25.5146 12.5718 25.5146 14.718C25.5146 16.8641 25.6788 21.4631 24.9488 23.3985C24.6933 24.0692 24.3831 24.5675 23.8903 25.0848C23.3976 25.6022 22.9231 25.928 22.2843 26.1963C20.4411 26.9628 16.0611 26.7903 14.0171 26.7903C11.9731 26.7903 7.59312 26.9628 5.74987 26.1963C5.11113 25.928 4.63663 25.6022 4.14388 25.0848C3.65113 24.5675 3.34088 24.0692 3.08538 23.3985C2.35538 21.4631 2.51963 16.8641 2.51963 14.718C2.51963 12.5718 2.35538 7.97277 3.08538 6.03737C3.34088 5.36668 3.65113 4.86846 4.14388 4.35107C4.63663 3.83369 5.11113 3.50792 5.74987 3.23965C7.59312 2.47315 11.9731 2.64562 14.0171 2.64562ZM28.0331 14.718C28.0331 12.6867 28.0513 10.6747 27.9418 8.64346C27.8323 6.28648 27.3213 4.19777 25.6788 2.47315C24.0363 0.748533 22.0471 0.211984 19.8023 0.0970109C17.8678 -0.0179643 15.9516 0.00119755 14.0171 0.00119755C12.0826 0.00119755 10.1664 -0.0179643 8.23187 0.0970109C5.98712 0.211984 3.99788 0.748533 2.35538 2.47315C0.712889 4.19777 0.20189 6.28648 0.0923904 8.64346C-0.0171093 10.6747 0.00114062 12.6867 0.00114062 14.718C0.00114062 16.7492 -0.0171093 18.7612 0.0923904 20.7925C0.20189 23.1494 0.712889 25.2381 2.35538 26.9628C3.99788 28.6874 5.98712 29.2239 8.23187 29.3389C10.1664 29.4539 12.0826 29.4347 14.0171 29.4347C15.9516 29.4347 17.8678 29.4539 19.8023 29.3389C22.0471 29.2239 24.0363 28.6874 25.6788 26.9628C27.3213 25.2381 27.8323 23.1494 27.9418 20.7925C28.0513 18.7612 28.0331 16.7492 28.0331 14.718Z" fill="white"/>
</svg>
