<svg width="29" height="30" viewBox="0 0 29 30" fill="none" xmlns="http://www.w3.org/2000/svg">
<g clip-path="url(#clip0_1675_184)">
<path d="M3.4142 0C1.52695 0 0 1.6107 0 3.60144C0 5.59219 1.52695 7.20289 3.4142 7.20289C5.30145 7.20289 6.8284 5.59219 6.8284 3.60144C6.8284 1.6107 5.30145 0 3.4142 0Z" fill="white"/>
<path d="M6.50185 9.62793H0.333984V29.4359H6.50185V9.62793Z" fill="white"/>
<path d="M21.1718 9.15749C18.7956 9.15749 17.1314 10.3519 15.9647 11.8812V9.62803H9.79688V29.436H15.9647V17.8263C16.1277 15.3288 17.8177 14.6773 19.0187 14.6773C20.2797 14.6773 21.8753 15.3288 21.8753 18.9664V29.4269H28.0431V15.4736C28.0431 15.4736 27.7686 9.14844 21.1718 9.14844V9.15749Z" fill="white"/>
</g>
<defs>
<clipPath id="clip0_1675_184">
<rect width="28.0342" height="29.4359" fill="white"/>
</clipPath>
</defs>
</svg>
