<svg width="123" height="123" viewBox="0 0 123 123" fill="none" xmlns="http://www.w3.org/2000/svg">
<g clip-path="url(#clip0_598_5282)">
<path d="M64.8706 0L63.4442 54.8544L101.361 15.2731L106.86 20.7486L67.2554 58.6644L122.111 57.2384V64.8694L67.2554 63.4434L106.626 100.652C107.455 102.441 102.908 105.398 101.774 106.81L63.4469 67.2534L64.8734 122.108H57.2427L58.6691 67.2534L20.3421 106.81C19.1993 105.387 14.6721 102.458 15.4927 100.654L54.8607 63.4407L0 64.8722V56.7621L54.8552 58.6644L15.2476 20.7486C15.2476 20.2036 19.4719 15.7659 20.0392 15.4741C20.4055 15.2841 20.6258 15.1547 20.9865 15.4741L58.6719 54.8516L57.2399 0H64.8706Z" fill="#145365"/>
</g>
<defs>
<clipPath id="clip0_598_5282">
<rect width="122.111" height="122.111" fill="white"/>
</clipPath>
</defs>
</svg>
