<svg width="50" height="50" viewBox="0 0 50 50" fill="none" xmlns="http://www.w3.org/2000/svg">
<path d="M31.4538 41.5061L18.5824 36.9791L10.4465 40.1603C9.94614 40.3812 9.46905 40.3457 9.01523 40.0541C8.56107 39.7624 8.33398 39.3348 8.33398 38.7713V13.3332C8.33398 12.9621 8.42409 12.6228 8.6043 12.3155C8.78451 12.0086 9.04423 11.7949 9.38346 11.6744L18.5824 8.49365L31.4538 12.9858L39.5548 9.83167C40.0552 9.61605 40.5322 9.63271 40.9861 9.88167C41.4402 10.1306 41.6673 10.5235 41.6673 11.0603V36.9285C41.6673 37.298 41.5571 37.6197 41.3366 37.8937C41.1165 38.168 40.835 38.3626 40.4923 38.4775L31.4538 41.5061ZM30.4866 39.3374V14.3723L19.5147 10.5744V35.5395L30.4866 39.3374ZM32.2496 39.3374L39.9043 36.8244V11.5119L32.2496 14.3723V39.3374ZM10.097 38.4535L17.7517 35.5395V10.5744L10.097 13.1676V38.4535Z" fill="#EBFFFF"/>
</svg>
