<svg width="40" height="40" viewBox="0 0 40 40" fill="none" xmlns="http://www.w3.org/2000/svg">
<path d="M15.1663 36.1101C13.8799 36.1101 12.7518 35.703 11.7821 34.8889C10.8124 34.075 10.1709 33.0497 9.85753 31.813C9.52003 32.4108 9.05683 32.8722 8.46794 33.1972C7.87933 33.5225 7.236 33.6851 6.53794 33.6851C5.40905 33.6851 4.45489 33.2914 3.67544 32.5039C2.89572 31.7164 2.50586 30.7618 2.50586 29.6401C2.50586 28.5623 2.87169 27.6301 3.60336 26.8435C4.33475 26.0568 5.26711 25.6739 6.40044 25.6947C5.80905 25.1819 5.33794 24.5493 4.98711 23.7968C4.63655 23.0443 4.46128 22.2666 4.46128 21.4639C4.46128 20.5619 4.68155 19.7143 5.12211 18.921C5.56239 18.1276 6.18753 17.4796 6.99753 16.9768C7.08753 17.1726 7.19114 17.388 7.30836 17.623C7.42586 17.858 7.53836 18.0721 7.64586 18.2651C7.07475 18.6646 6.64211 19.153 6.34794 19.7305C6.05378 20.3078 5.90669 20.9015 5.90669 21.5118C5.90669 23.284 6.55808 24.429 7.86086 24.9468C9.16336 25.4646 10.5066 25.858 11.8904 26.1272L12.1504 26.6401C11.8404 27.5418 11.5914 28.3033 11.4034 28.9247C11.2153 29.5461 11.1213 30.1197 11.1213 30.6455C11.1213 31.7153 11.5167 32.653 12.3075 33.4589C13.0986 34.265 14.0502 34.668 15.1621 34.668C16.3585 34.668 17.3464 34.2214 18.1259 33.328C18.905 32.435 19.5392 31.3694 20.0284 30.1314C20.5178 28.8936 20.8977 27.6169 21.1679 26.3014C21.4382 24.9858 21.6663 23.9125 21.8521 23.0814L23.2434 23.4864C23.0289 24.5639 22.7646 25.8278 22.4504 27.278C22.1363 28.728 21.6906 30.1053 21.1134 31.4097C20.5361 32.7141 19.7736 33.8237 18.8259 34.7385C17.8784 35.6529 16.6585 36.1101 15.1663 36.1101ZM6.54461 32.2747C7.276 32.2747 7.89683 32.0196 8.40711 31.5093C8.91739 30.999 9.17253 30.378 9.17253 29.6464C9.17253 28.9291 8.91739 28.3118 8.40711 27.7943C7.89683 27.2771 7.276 27.0185 6.54461 27.0185C5.82739 27.0185 5.21003 27.2771 4.69253 27.7943C4.17503 28.3118 3.91628 28.9291 3.91628 29.6464C3.91628 30.378 4.17503 30.999 4.69253 31.5093C5.21003 32.0196 5.82739 32.2747 6.54461 32.2747ZM16.8884 25.0055C15.7645 23.9991 14.7397 23.0619 13.8142 22.1939C12.8886 21.3261 12.0867 20.4707 11.4084 19.6276C10.73 18.7848 10.2081 17.9476 9.84253 17.116C9.47725 16.2846 9.29461 15.4115 9.29461 14.4968C9.29461 12.9615 9.8235 11.6685 10.8813 10.6176C11.9391 9.56706 13.2285 9.04178 14.7496 9.04178C15.0888 9.04178 15.405 9.05942 15.6984 9.0947C15.9917 9.12998 16.2631 9.19109 16.5125 9.27803C16.33 8.96303 16.1925 8.65873 16.1 8.36512C16.0075 8.07151 15.9613 7.77359 15.9613 7.47137C15.9613 6.34526 16.3524 5.39067 17.1346 4.60762C17.9171 3.82428 18.8709 3.43262 19.9959 3.43262C21.1209 3.43262 22.0759 3.82428 22.8609 4.60762C23.6456 5.39067 24.0379 6.34526 24.0379 7.47137C24.0379 7.77692 23.9928 8.07512 23.9025 8.36595C23.812 8.65706 23.6734 8.95998 23.4867 9.2747C23.7361 9.18776 24.0075 9.1272 24.3009 9.09303C24.5942 9.05887 24.9104 9.04178 25.2496 9.04178C26.4832 9.04178 27.5588 9.38887 28.4763 10.083C29.3935 10.7769 30.0231 11.6741 30.365 12.7747C30.1486 12.7569 29.9014 12.7491 29.6234 12.7514C29.345 12.7533 29.095 12.7714 28.8734 12.8055C28.5809 12.0941 28.1149 11.524 27.4754 11.0951C26.8363 10.6665 26.0991 10.4522 25.2638 10.4522C24.2093 10.4522 23.3661 10.7208 22.7342 11.258C22.102 11.7955 21.2809 12.6515 20.2709 13.826H19.6867C18.6631 12.6173 17.8352 11.7529 17.2029 11.2326C16.571 10.7123 15.7532 10.4522 14.7496 10.4522C13.5891 10.4522 12.6247 10.8362 11.8567 11.6043C11.0886 12.3723 10.7046 13.3365 10.7046 14.4968C10.7046 15.1468 10.8692 15.8168 11.1984 16.5068C11.5275 17.1968 12.0018 17.9294 12.6213 18.7047C13.241 19.48 13.9957 20.3028 14.8854 21.173C15.7749 22.0436 16.7806 22.983 17.9025 23.9914L16.8884 25.0055ZM19.9996 10.0993C20.731 10.0993 21.352 9.84415 21.8625 9.33387C22.3728 8.82359 22.6279 8.20276 22.6279 7.47137C22.6279 6.7397 22.3728 6.11873 21.8625 5.60845C21.352 5.09817 20.731 4.84303 19.9996 4.84303C19.2682 4.84303 18.6472 5.09817 18.1367 5.60845C17.6264 6.11873 17.3713 6.7397 17.3713 7.47137C17.3713 8.20276 17.6264 8.82359 18.1367 9.33387C18.6472 9.84415 19.2682 10.0993 19.9996 10.0993ZM24.7271 36.1485C24.3318 36.1485 23.9409 36.1005 23.5542 36.0047C23.1678 35.9086 22.7949 35.7668 22.4354 35.5793C22.5485 35.4023 22.6724 35.194 22.8071 34.9543C22.9416 34.7146 23.0563 34.4942 23.1513 34.293C23.4252 34.4266 23.7002 34.5279 23.9763 34.5968C24.2521 34.6654 24.5291 34.6997 24.8071 34.6997C25.9154 34.6997 26.8672 34.2979 27.6625 33.4943C28.4578 32.6904 28.8554 31.7397 28.8554 30.6422C28.8554 30.1166 28.7568 29.5473 28.5596 28.9343C28.3621 28.3215 28.1178 27.5664 27.8267 26.6689L28.1184 26.1776C29.5442 25.9126 30.8979 25.5158 32.1796 24.9872C33.4613 24.4589 34.1021 23.3086 34.1021 21.5364C34.1021 20.1589 33.6195 19.1308 32.6542 18.4522C31.6886 17.7733 30.5902 17.4339 29.3588 17.4339C28.2385 17.4339 26.9249 17.624 25.4179 18.0043C23.9113 18.3848 22.1782 18.901 20.2188 19.5526L19.8417 18.1614C21.7289 17.5525 23.4404 17.0333 24.9763 16.6039C26.5121 16.1744 27.9099 15.9597 29.1696 15.9597C30.8154 15.9597 32.2841 16.4418 33.5754 17.406C34.8668 18.3704 35.5125 19.7451 35.5125 21.5301C35.5125 22.3237 35.346 23.0819 35.0129 23.8047C34.6799 24.5275 34.2107 25.1596 33.6054 25.701C34.7343 25.7018 35.6656 26.0894 36.3992 26.8639C37.1328 27.6386 37.4996 28.5661 37.4996 29.6464C37.4996 30.7575 37.1099 31.713 36.3304 32.513C35.5507 33.3128 34.5964 33.7126 33.4675 33.7126C32.7739 33.7126 32.1306 33.5501 31.5375 33.2251C30.9445 32.8998 30.4813 32.4314 30.1479 31.8197C29.8163 33.0561 29.1584 34.0866 28.1742 34.9114C27.1903 35.7361 26.0413 36.1485 24.7271 36.1485ZM33.5029 32.3026C34.2157 32.3026 34.825 32.0439 35.3309 31.5264C35.8364 31.0089 36.0892 30.3915 36.0892 29.6743C36.0892 28.9612 35.8295 28.338 35.31 27.8047C34.7903 27.2711 34.1741 27.0043 33.4613 27.0043C32.7482 27.0043 32.132 27.2641 31.6125 27.7839C31.0928 28.3033 30.8329 28.9196 30.8329 29.6326C30.8329 30.3457 31.0997 30.9689 31.6334 31.5022C32.1667 32.0358 32.7899 32.3026 33.5029 32.3026Z" fill="#EBFFFF"/>
</svg>
