<svg width="50" height="50" viewBox="0 0 50 50" fill="none" xmlns="http://www.w3.org/2000/svg">
<path d="M11.698 40.3849H38.3012V36.9792C38.3012 36.6052 38.1809 36.2981 37.9402 36.0578C37.7 35.8172 37.3928 35.6969 37.0189 35.6969H12.9803C12.6064 35.6969 12.2993 35.8172 12.059 36.0578C11.8184 36.2981 11.698 36.6052 11.698 36.9792V40.3849ZM17.2913 33.9344H32.7079L31.2616 23.7979H18.7376L17.2913 33.9344ZM9.93555 42.1474V36.9792C9.93555 36.1556 10.2371 35.4422 10.8402 34.8391C11.4434 34.2359 12.1567 33.9344 12.9803 33.9344H15.5283L16.9975 23.7979H12.1793V22.0354H37.8199V23.7979H33.0017L34.471 33.9344H37.0095C37.846 33.9344 38.5642 34.2359 39.1642 34.8391C39.7638 35.4422 40.0637 36.1556 40.0637 36.9792V42.1474H9.93555ZM16.9215 22.0354L13.7814 7.85261C14.7387 8.52483 15.6553 9.00781 16.5314 9.30156C17.4071 9.59531 18.3441 9.74219 19.3423 9.74219C20.4472 9.74219 21.475 9.57865 22.4257 9.25156C23.376 8.92413 24.234 8.44444 24.9996 7.8125C25.7652 8.44444 26.6194 8.92413 27.5621 9.25156C28.5048 9.57865 29.5279 9.74219 30.6314 9.74219C31.5376 9.74219 32.4159 9.60642 33.2663 9.33489C34.1166 9.06337 35.1137 8.56927 36.2574 7.85261L33.0777 22.0354H31.2512L33.7392 10.9818C33.1638 11.1491 32.5982 11.2795 32.0423 11.3729C31.4864 11.4663 30.9316 11.513 30.3777 11.513C29.4114 11.513 28.4737 11.3946 27.5647 11.1578C26.656 10.921 25.801 10.5622 24.9996 10.0812C24.201 10.5622 23.3399 10.921 22.4163 11.1578C21.4927 11.3946 20.5442 11.513 19.571 11.513C19.0387 11.513 18.5043 11.4752 17.9678 11.3995C17.4314 11.3238 16.8845 11.2111 16.3272 11.0615L18.748 22.0354H16.9215Z" fill="#EBFFFF"/>
</svg>
