<svg width="18" height="18" viewBox="0 0 18 18" fill="none" xmlns="http://www.w3.org/2000/svg">
<path d="M3.52219 15.02C3.30106 15.1056 3.09625 15.0811 2.90775 14.9465C2.71925 14.8119 2.625 14.6277 2.625 14.3941V4.55768C2.625 4.40956 2.66469 4.27662 2.74406 4.15887C2.82331 4.04112 2.93463 3.95581 3.078 3.90293L6.75 2.65381L11.25 4.22881L14.4778 2.97987C14.6989 2.89425 14.9038 2.91512 15.0922 3.0425C15.2808 3.16987 15.375 3.348 15.375 3.57687V9.25381C15.226 9.04806 15.057 8.85887 14.868 8.68625C14.6791 8.51362 14.4731 8.36143 14.25 8.22968V4.27493L11.8125 5.19518V7.58656C11.6125 7.59131 11.4199 7.60837 11.2348 7.63775C11.0498 7.667 10.8674 7.71337 10.6875 7.77687V5.19518L7.3125 4.01525V13.562L3.52219 15.02ZM3.75 13.7249L6.1875 12.7902V4.01525L3.75 4.83743V13.7249ZM11.9567 13.5792C12.4153 13.5792 12.7973 13.4362 13.1027 13.1502C13.4079 12.8641 13.5644 12.4687 13.5722 11.9639C13.5798 11.5052 13.4271 11.1212 13.1141 10.8121C12.8011 10.503 12.4153 10.3484 11.9567 10.3484C11.4981 10.3484 11.1142 10.503 10.8051 10.8121C10.4959 11.1212 10.3414 11.5052 10.3414 11.9639C10.3414 12.4226 10.4959 12.8064 10.8051 13.1156C11.1142 13.4247 11.4981 13.5792 11.9567 13.5792ZM11.9567 14.7042C11.2038 14.7042 10.5589 14.4357 10.0219 13.8987C9.48488 13.3617 9.21638 12.7168 9.21638 11.9639C9.21638 11.2111 9.48488 10.5661 10.0219 10.0291C10.5589 9.492 11.2038 9.22343 11.9567 9.22343C12.7096 9.22343 13.3545 9.492 13.8915 10.0291C14.4285 10.5661 14.697 11.2111 14.697 11.9639C14.697 12.2466 14.6591 12.5136 14.5832 12.7651C14.5072 13.0165 14.3956 13.2499 14.2485 13.4652L16.125 15.3346L15.3418 16.1249L13.4653 14.2484C13.2499 14.4004 13.0166 14.5144 12.7652 14.5902C12.5137 14.6662 12.2442 14.7042 11.9567 14.7042Z" fill="white"/>
</svg>
