<svg width="114" height="115" viewBox="0 0 114 115" fill="none" xmlns="http://www.w3.org/2000/svg">
<g clip-path="url(#clip0_344_655)">
<path d="M88.6555 91.794L86.2452 71.1906L68.1385 63.129L77.199 42.7786L74.6685 17.4897L54.182 32.5308L45.1214 52.8811L27.0146 44.8195L10.0906 56.8147L19.2974 60.9138L9.20683 83.5776L69.3581 110.359L79.4486 87.6949L88.6555 91.794ZM82.5983 83.5171L59.6548 73.302L58.6218 64.472L81.5654 74.6871L82.5983 83.5171ZM58.9316 59.0298L66.763 41.4403C67.9666 42.6993 69.3299 43.7938 70.8276 44.7002L63.535 61.0794L58.9316 59.0298ZM71.7555 39.1346C70.4137 38.0399 69.2668 36.714 68.3628 35.1966L67.4597 33.6811L65.729 34.0241C63.9965 34.3675 62.2438 34.4024 60.5322 34.1377L70.5217 26.8036L71.7555 39.1346ZM57.0173 38.5515C58.693 39.0579 60.4186 39.3387 62.1595 39.3909L54.3282 56.9803L49.7248 54.9307L57.0173 38.5515ZM27.5477 50.6369L50.4913 60.852L43.2381 65.9928L20.2945 55.7777L27.5477 50.6369ZM23.9008 62.9634L43.7711 71.8102L49.5487 67.7153L39.0542 91.2864L15.8836 80.9702L23.9008 62.9634ZM66.8281 103.652L43.6576 93.336L54.1521 69.7649L54.9749 76.7985L74.8452 85.6453L66.8281 103.652Z" fill="white"/>
</g>
<defs>
<clipPath id="clip0_344_655">
<rect width="86" height="87" fill="white" transform="translate(35.3861) rotate(24)"/>
</clipPath>
</defs>
</svg>
