<svg width="86" height="87" viewBox="0 0 86 87" fill="none" xmlns="http://www.w3.org/2000/svg">
<g clip-path="url(#clip0_344_643)">
<path d="M86 20.3912L82.2414 19.5139L85.9995 0.000509763L66.7106 3.80266L65.8434 0L27.018 11.8248C19.3737 14.157 12.4973 19.0121 7.65547 25.4961C2.64717 32.2029 0 40.1912 0 48.5979C0 55.3527 1.75728 61.9615 5.08959 67.7845L0 87L18.9946 81.8512C24.7509 85.2223 31.2837 87 37.9607 87C46.2708 87 54.1674 84.322 60.7969 79.2557C67.2066 74.3575 72.0059 67.4012 74.3115 59.667L86 20.3912ZM15.1171 48.5979C15.1171 37.561 22.8705 28.023 33.5531 25.9184L44.7444 23.7126L15.5768 53.2194C15.2721 51.7078 15.1171 50.1635 15.1171 48.5979ZM53.5952 21.9681L62.4459 20.2236L15.7597 67.4526C15.0818 65.8326 14.1976 64.3084 13.1226 62.9112L53.5952 21.9681ZM64.2843 32.782L23.812 73.7249C22.4309 72.6374 20.9241 71.7428 19.3228 71.0572L66.009 23.828L64.2843 32.782ZM62.5599 41.7355L60.3795 53.0558C58.2993 63.8631 48.8707 71.7071 37.9607 71.7071C36.4131 71.7071 34.8866 71.5503 33.3923 71.2422L62.5599 41.7355ZM10.306 67.7862C11.1702 69.3029 11.7717 70.9649 12.0801 72.7173L12.3883 74.4678L14.1187 74.7796C15.851 75.0918 17.4937 75.7001 18.993 76.5743L7.1262 79.7911L10.306 67.7862ZM37.9607 81.9024C33.6137 81.9024 29.3376 81.0332 25.3643 79.3636L29.2793 75.4031C32.0739 76.3327 34.9863 76.8047 37.9607 76.8047C51.2767 76.8047 62.7853 67.2266 65.3255 54.0306L73.2474 12.9011L32.5898 20.9149C19.5456 23.4846 10.0781 35.1271 10.0781 48.5979C10.0781 51.6068 10.5448 54.5531 11.4638 57.3801L7.54881 61.3406C5.89819 57.3213 5.0392 52.9954 5.03903 48.5979C5.03903 34.0294 14.6753 20.9145 28.4717 16.7058L62.143 6.45071L62.895 9.74819L79.6234 6.45088L76.364 23.3736L79.6236 24.1345L69.4868 58.1964C65.326 72.154 52.3621 81.9024 37.9607 81.9024Z" fill="white"/>
<path d="M8.81836 7.64694H13.8574V12.7446H8.81836V7.64694Z" fill="white"/>
<path d="M16.377 0.00050354H21.416V5.09816H16.377V0.00050354Z" fill="white"/>
<path d="M73.4023 72.9815H78.4414V78.0792H73.4023V72.9815Z" fill="white"/>
<path d="M80.9609 65.3351H86V70.4327H80.9609V65.3351Z" fill="white"/>
</g>
<defs>
<clipPath id="clip0_344_643">
<rect width="86" height="87" fill="white"/>
</clipPath>
</defs>
</svg>
