<svg width="114" height="115" viewBox="0 0 114 115" fill="none" xmlns="http://www.w3.org/2000/svg">
<g clip-path="url(#clip0_344_634)">
<path d="M86.8391 54.175L87.6469 52.0338C89.3242 47.5875 87.0875 42.5639 82.6609 40.8352C80.4512 39.9724 78.1071 40.0914 76.1047 40.9799C75.2009 38.9565 73.5371 37.2724 71.3274 36.4094C70.1504 35.9498 68.9357 35.7712 67.7545 35.8366L74.4824 18.0106C76.1597 13.5643 73.9231 8.54069 69.4964 6.81206C65.0698 5.08342 60.1039 7.29438 58.4267 11.7405L47.8325 39.8127C46.2198 36.7728 43.5607 34.2734 40.1307 32.934C35.7041 31.2054 30.7382 33.4163 29.0609 37.8626C27.6948 41.4838 28.9248 45.4881 31.8199 47.7833L28.9419 55.4123C22.5285 72.4129 31.0806 91.6208 48.0057 98.2304C64.9308 104.84 83.918 96.3862 90.3314 79.3856L95.4014 65.9463C97.0787 61.5 94.842 56.4764 90.4154 54.7477C89.2375 54.2875 88.0215 54.109 86.8391 54.175ZM90.6792 64.102L85.6093 77.5413C80.1825 91.9264 64.1164 99.0795 49.7952 93.4869C35.4738 87.8943 28.2375 71.6413 33.6642 57.2562L38.1973 45.2399L35.8361 44.3178C34.0134 43.606 33.0924 41.5374 33.7831 39.7067C34.4738 37.8759 36.5185 36.9655 38.3412 37.6773C43.2885 39.6093 45.7883 45.224 43.9137 50.1933L43.9148 50.1938L40.2754 59.8377L44.9974 61.6824L63.1486 13.5847C63.8393 11.7538 65.884 10.8435 67.7067 11.5553C69.5294 12.2671 70.4504 14.3357 69.7598 16.1662L55.2475 54.6189L59.9695 56.4637L64.997 43.1428C65.7024 41.3391 67.7289 40.4461 69.538 41.1526C71.3608 41.8644 72.2818 43.933 71.591 45.7637L66.5807 59.0449L71.303 60.889L76.3132 47.6078C77.0039 45.7769 79.0488 44.8665 80.8713 45.5784C82.6941 46.2902 83.6151 48.3588 82.9244 50.1896L77.9141 63.4709L82.6364 65.3149L84.0677 61.5203C84.7584 59.6894 86.8033 58.779 88.6258 59.4909C90.449 60.2027 91.37 62.2713 90.6792 64.102Z" fill="#221D1D"/>
<path d="M50.8226 17.5178L46.1002 15.6738L43.2372 23.263L35.6816 20.3124L33.8922 25.0557L46.1701 29.8505L50.8226 17.5178Z" fill="#221D1D"/>
</g>
<defs>
<clipPath id="clip0_344_634">
<rect width="86" height="87" fill="white" transform="translate(0 34.9794) rotate(-24)"/>
</clipPath>
</defs>
</svg>
