<svg width="36" height="36" viewBox="0 0 36 36" fill="none" xmlns="http://www.w3.org/2000/svg">
<path d="M11.1731 13.221V11.3366H30.75V13.221H11.1731ZM11.1731 18.9424V17.0576H30.75V18.9424H11.1731ZM11.1731 24.6634V22.779H30.75V24.6634H11.1731ZM6.27862 13.3076C5.99962 13.3076 5.7585 13.2063 5.55525 13.0035C5.35175 12.8005 5.25 12.5516 5.25 12.2569C5.25 11.9701 5.35175 11.7306 5.55525 11.5384C5.75875 11.3461 6.00413 11.25 6.29138 11.25C6.57888 11.25 6.82013 11.3473 7.01513 11.5418C7.21013 11.7363 7.30762 11.9771 7.30762 12.2644C7.30762 12.5541 7.209 12.8005 7.01175 13.0035C6.8145 13.2063 6.57012 13.3076 6.27862 13.3076ZM6.27862 19.0144C5.99962 19.0144 5.7585 18.914 5.55525 18.7132C5.35175 18.5127 5.25 18.2709 5.25 17.9876C5.25 17.6921 5.35175 17.4464 5.55525 17.2504C5.75875 17.0546 6.00413 16.9567 6.29138 16.9567C6.57888 16.9567 6.82013 17.0558 7.01513 17.2538C7.21013 17.4515 7.30762 17.7019 7.30762 18.0049C7.30762 18.2766 7.209 18.5129 7.01175 18.7136C6.8145 18.9141 6.57012 19.0144 6.27862 19.0144ZM6.27862 24.75C5.99962 24.75 5.7585 24.6485 5.55525 24.4455C5.35175 24.2425 5.25 23.9936 5.25 23.6989C5.25 23.4124 5.35175 23.173 5.55525 22.9808C5.75875 22.7885 6.00413 22.6924 6.29138 22.6924C6.57888 22.6924 6.82013 22.7895 7.01513 22.9838C7.21013 23.1783 7.30762 23.4193 7.30762 23.7067C7.30762 23.9963 7.209 24.2425 7.01175 24.4455C6.8145 24.6485 6.57012 24.75 6.27862 24.75Z" fill="white"/>
</svg>
