<svg width="36" height="36" viewBox="0 0 36 36" fill="none" xmlns="http://www.w3.org/2000/svg">
<path d="M3.75 27.7211V25.4711H18.4181V27.7211H3.75ZM3.75 20.3798V18.1298H10.8461V20.3798H3.75ZM3.75 13.0384V10.7884H10.8461V13.0384H3.75ZM30.6694 27.75L24.8655 21.9893C24.2943 22.4048 23.6716 22.7211 22.9976 22.9384C22.3236 23.1556 21.6385 23.2643 20.9423 23.2643C19.0628 23.2643 17.4607 22.6076 16.1363 21.2944C14.8115 19.9809 14.1491 18.3851 14.1491 16.5071C14.1491 14.6294 14.8118 13.0337 16.137 11.7202C17.4625 10.4067 19.0654 9.75 20.9456 9.75C22.8261 9.75 24.4279 10.4067 25.7509 11.7202C27.0739 13.0337 27.7354 14.627 27.7354 16.5C27.7354 17.1963 27.6268 17.8814 27.4095 18.5554C27.1923 19.2294 26.8711 19.8471 26.4461 20.4086L32.25 26.1694L30.6694 27.75ZM20.9423 21.0143C22.2043 21.0143 23.277 20.5768 24.1605 19.7018C25.044 18.8268 25.4858 17.7619 25.4858 16.5071C25.4858 15.2524 25.044 14.1875 24.1605 13.3125C23.277 12.4375 22.2043 12 20.9423 12C19.6803 12 18.6075 12.4375 17.724 13.3125C16.8408 14.1875 16.3991 15.2524 16.3991 16.5071C16.3991 17.7619 16.8408 18.8268 17.724 19.7018C18.6075 20.5768 19.6803 21.0143 20.9423 21.0143Z" fill="white"/>
</svg>
