<svg width="36" height="36" viewBox="0 0 36 36" fill="none" xmlns="http://www.w3.org/2000/svg">
<path d="M6.83062 30.75L5.25 29.1694L16.6961 17.7L10.1396 16.0845L16.9875 11.8327L16.3935 3.75L22.572 8.9655L30.0375 5.925L27.0345 13.4134L32.25 19.569L24.1673 19.0125L19.8923 25.8604L18.2625 19.3039L6.83062 30.75ZM7.71638 11.1056L5.25 8.63925L7.71638 6.17325L10.1828 8.63925L7.71638 11.1056ZM20.8125 20.1521L22.9586 16.6556L27.0664 16.9616L24.4125 13.8086L25.956 10.0065L22.1539 11.55L19.0009 8.919L19.3069 13.0039L15.825 15.1733L19.8056 16.1569L20.8125 20.1521ZM27.3608 30.75L24.8944 28.2836L27.3608 25.8172L29.8268 28.2836L27.3608 30.75Z" fill="white"/>
</svg>
