<svg width="36" height="36" viewBox="0 0 36 36" fill="none" xmlns="http://www.w3.org/2000/svg">
<path d="M31.9613 30.9806L26.6536 25.6729H11.9997C11.27 25.6729 10.6452 25.413 10.1255 24.8933C9.60571 24.3738 9.34584 23.749 9.34584 23.019V22.0961H25.673C26.4185 22.0961 27.0567 21.8306 27.5877 21.2996C28.1187 20.7686 28.3842 20.1303 28.3842 19.3845V9H29.3075C30.0372 9 30.662 9.25987 31.1817 9.77962C31.7015 10.2994 31.9613 10.9241 31.9613 11.6539V30.9806ZM6.28809 18.9694L8.41134 16.8461H22.673C22.8075 16.8461 22.918 16.8029 23.0045 16.7164C23.091 16.6299 23.1342 16.5192 23.1342 16.3845V6.46163C23.1342 6.32687 23.091 6.21625 23.0045 6.12975C22.918 6.04325 22.8075 6 22.673 6H6.74971C6.61521 6 6.50459 6.04325 6.41784 6.12975C6.33134 6.21625 6.28809 6.32687 6.28809 6.46163V18.9694ZM4.03809 24.4039V6.46163C4.03809 5.71587 4.30359 5.0775 4.83459 4.5465C5.36559 4.0155 6.00396 3.75 6.74971 3.75H22.673C23.4185 3.75 24.0567 4.0155 24.5877 4.5465C25.1187 5.0775 25.3842 5.71587 25.3842 6.46163V16.3845C25.3842 17.1302 25.1187 17.7686 24.5877 18.2996C24.0567 18.8306 23.4185 19.0961 22.673 19.0961H9.34584L4.03809 24.4039Z" fill="white"/>
</svg>
