<svg width="36" height="36" viewBox="0 0 36 36" fill="none" xmlns="http://www.w3.org/2000/svg">
<path d="M17.3336 26.2211C15.1934 26.0384 13.3944 25.1663 11.9366 23.6047C10.4789 22.0432 9.75 20.175 9.75 18C9.75 15.7083 10.5521 13.7604 12.1564 12.1564C13.7604 10.5521 15.7083 9.75 18 9.75C20.175 9.75 22.0433 10.4765 23.6048 11.9295C25.1663 13.3822 26.0384 15.1789 26.2211 17.3194L23.8358 16.6125C23.5115 15.2625 22.8131 14.1562 21.7406 13.2938C20.6684 12.4313 19.4215 12 18 12C16.35 12 14.9375 12.5875 13.7625 13.7625C12.5875 14.9375 12 16.35 12 18C12 19.425 12.4336 20.675 13.3009 21.75C14.1681 22.825 15.272 23.525 16.6125 23.85L17.3336 26.2211ZM19.1336 32.1893C18.9446 32.2298 18.7558 32.25 18.567 32.25H18C16.0288 32.25 14.1762 31.876 12.4425 31.128C10.7087 30.38 9.20062 29.3649 7.91813 28.0826C6.63562 26.8004 5.62037 25.2925 4.87237 23.559C4.12412 21.8255 3.75 19.9734 3.75 18.0026C3.75 16.0316 4.124 14.179 4.872 12.4447C5.62 10.7105 6.63513 9.202 7.91738 7.91925C9.19963 6.6365 10.7075 5.62087 12.441 4.87237C14.1745 4.12412 16.0266 3.75 17.9974 3.75C19.9684 3.75 21.821 4.12412 23.5553 4.87237C25.2895 5.62037 26.798 6.63563 28.0808 7.91813C29.3635 9.20063 30.3791 10.7087 31.1276 12.4425C31.8759 14.1762 32.25 16.0288 32.25 18V18.5595C32.25 18.746 32.2298 18.9326 32.1893 19.1194L30 18.45V18C30 14.65 28.8375 11.8125 26.5125 9.4875C24.1875 7.1625 21.35 6 18 6C14.65 6 11.8125 7.1625 9.4875 9.4875C7.1625 11.8125 6 14.65 6 18C6 21.35 7.1625 24.1875 9.4875 26.5125C11.8125 28.8375 14.65 30 18 30H18.45L19.1336 32.1893ZM30.2104 32.4664L23.4086 25.65L21.7789 30.5768L18 18L30.5768 21.7789L25.65 23.4086L32.4664 30.2104L30.2104 32.4664Z" fill="white"/>
</svg>
