<svg width="36" height="36" viewBox="0 0 36 36" fill="none" xmlns="http://www.w3.org/2000/svg">
<path d="M9.57713 23.5095H19.125V19.7884H9.57713V23.5095ZM22.7021 23.5095H26.4229V12.4905H22.7021V23.5095ZM9.57713 16.2116H19.125V12.4905H9.57713V16.2116ZM6.46163 29.25C5.70387 29.25 5.0625 28.9875 4.5375 28.4625C4.0125 27.9375 3.75 27.2961 3.75 26.5384V9.46163C3.75 8.70387 4.0125 8.0625 4.5375 7.5375C5.0625 7.0125 5.70387 6.75 6.46163 6.75H29.5384C30.2961 6.75 30.9375 7.0125 31.4625 7.5375C31.9875 8.0625 32.25 8.70387 32.25 9.46163V26.5384C32.25 27.2961 31.9875 27.9375 31.4625 28.4625C30.9375 28.9875 30.2961 29.25 29.5384 29.25H6.46163ZM6.46163 27H29.5384C29.6539 27 29.7596 26.9519 29.8556 26.8556C29.9519 26.7596 30 26.6539 30 26.5384V9.46163C30 9.34613 29.9519 9.24037 29.8556 9.14437C29.7596 9.04812 29.6539 9 29.5384 9H6.46163C6.34613 9 6.24038 9.04812 6.14438 9.14437C6.04813 9.24037 6 9.34613 6 9.46163V26.5384C6 26.6539 6.04813 26.7596 6.14438 26.8556C6.24038 26.9519 6.34613 27 6.46163 27Z" fill="white"/>
</svg>
