<svg width="25" height="25" viewBox="0 0 25 25" fill="none" xmlns="http://www.w3.org/2000/svg">
<path d="M11.68 17.6688C10.2378 17.5457 9.02557 16.958 8.04329 15.9058C7.06101 14.8536 6.56987 13.5947 6.56987 12.1291C6.56987 10.5849 7.11037 9.27232 8.19137 8.19149C9.2722 7.11049 10.5847 6.56999 12.129 6.56999C13.5946 6.56999 14.8535 7.05953 15.9057 8.03861C16.9579 9.01753 17.5455 10.2282 17.6687 11.6705L16.0613 11.1942C15.8428 10.2845 15.3723 9.53907 14.6496 8.95789C13.9271 8.37671 13.0869 8.08612 12.129 8.08612C11.0172 8.08612 10.0654 8.482 9.27363 9.27375C8.48187 10.0655 8.086 11.0173 8.086 12.1291C8.086 13.0893 8.37819 13.9316 8.96257 14.656C9.54695 15.3804 10.2908 15.8521 11.1941 16.0711L11.68 17.6688ZM12.8929 21.6903C12.7655 21.7176 12.6383 21.7313 12.5111 21.7313H12.129C10.8007 21.7313 9.55243 21.4793 8.38417 20.9752C7.21591 20.4712 6.19968 19.7872 5.33548 18.9232C4.47129 18.0591 3.78718 17.0431 3.28315 15.875C2.77895 14.7069 2.52686 13.4589 2.52686 12.1309C2.52686 10.8028 2.77887 9.5544 3.2829 8.38581C3.78693 7.21721 4.47095 6.20073 5.33498 5.33636C6.199 4.472 7.21506 3.78764 8.38316 3.28327C9.55125 2.77908 10.7993 2.52698 12.1272 2.52698C13.4554 2.52698 14.7037 2.77908 15.8723 3.28327C17.0409 3.7873 18.0574 4.47141 18.9218 5.33561C19.7861 6.1998 20.4705 7.21603 20.9749 8.38429C21.4791 9.55255 21.7312 10.8008 21.7312 12.1291V12.5061C21.7312 12.6318 21.7175 12.7576 21.6902 12.8834L20.215 12.4324V12.1291C20.215 9.87178 19.4317 7.95977 17.865 6.39311C16.2984 4.82644 14.3864 4.04311 12.129 4.04311C9.87166 4.04311 7.95965 4.82644 6.39298 6.39311C4.82632 7.95977 4.04298 9.87178 4.04298 12.1291C4.04298 14.3865 4.82632 16.2985 6.39298 17.8651C7.95965 19.4318 9.87166 20.2151 12.129 20.2151H12.4322L12.8929 21.6903ZM20.3568 21.8771L15.7735 17.284L14.6753 20.6038L12.129 12.1291L20.6037 14.6755L17.2838 15.7736L21.877 20.3569L20.3568 21.8771Z" fill="white"/>
</svg>
