<svg width="33" height="33" viewBox="0 0 33 33" fill="none" xmlns="http://www.w3.org/2000/svg">
<path d="M7.66997 26.4779H25.1121V24.245C25.1121 23.9998 25.0332 23.7984 24.8755 23.6409C24.7179 23.4831 24.5166 23.4042 24.2714 23.4042H8.5107C8.26551 23.4042 8.06415 23.4831 7.90662 23.6409C7.74885 23.7984 7.66997 23.9998 7.66997 24.245V26.4779ZM11.3371 22.2487H21.4449L20.4967 15.6028H12.2854L11.3371 22.2487ZM6.5144 27.6335V24.245C6.5144 23.705 6.71212 23.2373 7.10756 22.8418C7.50299 22.4464 7.9707 22.2487 8.5107 22.2487H10.1812L11.1445 15.6028H7.9855V14.4472H24.7966V15.6028H21.6375L22.6009 22.2487H24.2652C24.8136 22.2487 25.2845 22.4464 25.6779 22.8418C26.0711 23.2373 26.2677 23.705 26.2677 24.245V27.6335H6.5144ZM11.0947 14.4472L9.03589 5.14836C9.66353 5.5891 10.2645 5.90577 10.8389 6.09836C11.4131 6.29096 12.0274 6.38725 12.6819 6.38725C13.4063 6.38725 14.0801 6.28003 14.7034 6.06558C15.3265 5.8509 15.8891 5.5364 16.391 5.12207C16.893 5.5364 17.453 5.8509 18.0711 6.06558C18.6892 6.28003 19.36 6.38725 20.0835 6.38725C20.6776 6.38725 21.2535 6.29824 21.811 6.12022C22.3685 5.94219 23.0222 5.61824 23.7721 5.14836L21.6874 14.4472H20.4898L22.1211 7.19998C21.7439 7.30971 21.373 7.39519 21.0085 7.45643C20.6441 7.51767 20.2803 7.54829 19.9172 7.54829C19.2836 7.54829 18.6688 7.47066 18.0728 7.3154C17.4771 7.16014 16.9165 6.92486 16.391 6.60956C15.8674 6.92486 15.3029 7.16014 14.6973 7.3154C14.0917 7.47066 13.4699 7.54829 12.8318 7.54829C12.4828 7.54829 12.1324 7.52347 11.7807 7.47384C11.429 7.42422 11.0704 7.35034 10.705 7.25222L12.2922 14.4472H11.0947Z" fill="#EBFFFF"/>
</svg>
