<svg width="25" height="25" viewBox="0 0 25 25" fill="none" xmlns="http://www.w3.org/2000/svg">
<path d="M6.45338 15.8415H12.8871V13.3341H6.45338V15.8415ZM15.2975 15.8415H17.8046V8.41649H15.2975V15.8415ZM6.45338 10.9239H12.8871V8.41649H6.45338V10.9239ZM4.35404 19.7096C3.84345 19.7096 3.41126 19.5327 3.0575 19.179C2.70374 18.8252 2.52686 18.393 2.52686 17.8824V6.37553C2.52686 5.86493 2.70374 5.43275 3.0575 5.07899C3.41126 4.72522 3.84345 4.54834 4.35404 4.54834H19.904C20.4146 4.54834 20.8467 4.72522 21.2005 5.07899C21.5543 5.43275 21.7312 5.86493 21.7312 6.37553V17.8824C21.7312 18.393 21.5543 18.8252 21.2005 19.179C20.8467 19.5327 20.4146 19.7096 19.904 19.7096H4.35404ZM4.35404 18.1935H19.904C19.9818 18.1935 20.0531 18.1611 20.1177 18.0962C20.1826 18.0315 20.215 17.9603 20.215 17.8824V6.37553C20.215 6.2977 20.1826 6.22644 20.1177 6.16175C20.0531 6.0969 19.9818 6.06447 19.904 6.06447H4.35404C4.27622 6.06447 4.20496 6.0969 4.14027 6.16175C4.07541 6.22644 4.04298 6.2977 4.04298 6.37553V17.8824C4.04298 17.9603 4.07541 18.0315 4.14027 18.0962C4.20496 18.1611 4.27622 18.1935 4.35404 18.1935Z" fill="white"/>
</svg>
