<svg width="27" height="27" viewBox="0 0 27 27" fill="none" xmlns="http://www.w3.org/2000/svg">
<path d="M9.94377 23.6752C9.10036 23.6752 8.36076 23.4083 7.72497 22.8745C7.08918 22.3409 6.66856 21.6687 6.46313 20.8579C6.24185 21.2498 5.93816 21.5523 5.55206 21.7654C5.16614 21.9787 4.74434 22.0853 4.28667 22.0853C3.54652 22.0853 2.92093 21.8271 2.40989 21.3108C1.89868 20.7945 1.64307 20.1686 1.64307 19.4332C1.64307 18.7266 1.88292 18.1154 2.36263 17.5996C2.84216 17.0838 3.45346 16.8328 4.19652 16.8464C3.80878 16.5102 3.4999 16.0955 3.26988 15.6021C3.04004 15.1087 2.92512 14.5989 2.92512 14.0725C2.92512 13.4812 3.06954 12.9254 3.35839 12.4053C3.64705 11.8851 4.05692 11.4603 4.58799 11.1306C4.647 11.259 4.71493 11.4002 4.79179 11.5543C4.86883 11.7084 4.94258 11.8487 5.01307 11.9753C4.63862 12.2372 4.35497 12.5575 4.1621 12.9361C3.96923 13.3145 3.8728 13.7038 3.8728 14.104C3.8728 15.2659 4.29987 16.0166 5.15403 16.3561C6.008 16.6956 6.88866 16.9535 7.79599 17.13L7.96646 17.4663C7.76321 18.0575 7.59994 18.5568 7.47664 18.9642C7.35334 19.3716 7.2917 19.7477 7.2917 20.0924C7.2917 20.7938 7.55095 21.4086 8.06945 21.937C8.58814 22.4655 9.212 22.7297 9.94104 22.7297C10.7254 22.7297 11.3732 22.4369 11.8842 21.8512C12.3951 21.2657 12.8108 20.567 13.1316 19.7553C13.4525 18.9438 13.7015 18.1067 13.8787 17.2442C14.0559 16.3817 14.2054 15.6779 14.3273 15.133L15.2394 15.3986C15.0988 16.105 14.9256 16.9337 14.7196 17.8845C14.5136 18.8352 14.2214 19.7382 13.8429 20.5934C13.4645 21.4487 12.9645 22.1762 12.3431 22.7759C11.7219 23.3755 10.9221 23.6752 9.94377 23.6752ZM4.29104 21.1606C4.77057 21.1606 5.17761 20.9933 5.51217 20.6587C5.84673 20.3242 6.01401 19.917 6.01401 19.4373C6.01401 18.9671 5.84673 18.5623 5.51217 18.223C5.17761 17.8839 4.77057 17.7144 4.29104 17.7144C3.8208 17.7144 3.41603 17.8839 3.07674 18.223C2.73744 18.5623 2.56779 18.9671 2.56779 19.4373C2.56779 19.917 2.73744 20.3242 3.07674 20.6587C3.41603 20.9933 3.8208 21.1606 4.29104 21.1606ZM11.0728 16.3946C10.336 15.7348 9.66412 15.1203 9.05729 14.5512C8.45045 13.9822 7.92466 13.4214 7.47992 12.8686C7.03518 12.3161 6.69297 11.7671 6.45329 11.2219C6.2138 10.6768 6.09406 10.1044 6.09406 9.50462C6.09406 8.49803 6.44082 7.65025 7.13434 6.96128C7.82787 6.27249 8.67328 5.92809 9.67058 5.92809C9.89296 5.92809 10.1003 5.93966 10.2926 5.96279C10.4849 5.98592 10.6629 6.02598 10.8264 6.08299C10.7068 5.87646 10.6166 5.67695 10.556 5.48444C10.4953 5.29194 10.465 5.09661 10.465 4.89846C10.465 4.16014 10.7214 3.53427 11.2343 3.02087C11.7473 2.50728 12.3726 2.25049 13.1102 2.25049C13.8478 2.25049 14.474 2.50728 14.9887 3.02087C15.5032 3.53427 15.7604 4.16014 15.7604 4.89846C15.7604 5.0988 15.7308 5.29431 15.6716 5.48499C15.6122 5.67585 15.5214 5.87446 15.399 6.0808C15.5625 6.0238 15.7405 5.9841 15.9328 5.96169C16.1251 5.93929 16.3325 5.92809 16.5548 5.92809C17.3636 5.92809 18.0688 6.15566 18.6704 6.61078C19.2717 7.06572 19.6845 7.65398 19.9087 8.37555C19.7668 8.3639 19.6047 8.3588 19.4224 8.36025C19.24 8.36153 19.076 8.37337 18.9307 8.39577C18.7389 7.92935 18.4334 7.55554 18.0142 7.27435C17.5951 6.99333 17.1118 6.85282 16.5641 6.85282C15.8728 6.85282 15.3199 7.02893 14.9056 7.38116C14.4911 7.73357 13.9527 8.29478 13.2905 9.0648H12.9075C12.2364 8.27238 11.6936 7.70561 11.2791 7.3645C10.8648 7.02338 10.3286 6.85282 9.67058 6.85282C8.90968 6.85282 8.27744 7.10461 7.77387 7.60818C7.2703 8.11175 7.01851 8.74389 7.01851 9.50462C7.01851 9.93079 7.12642 10.3701 7.34224 10.8225C7.55805 11.2749 7.86903 11.7552 8.27516 12.2635C8.68148 12.7718 9.1763 13.3113 9.75964 13.8819C10.3428 14.4526 11.0022 15.0686 11.7378 15.7297L11.0728 16.3946ZM13.1127 6.62144C13.5922 6.62144 13.9994 6.45416 14.3341 6.1196C14.6687 5.78504 14.836 5.37799 14.836 4.89846C14.836 4.41875 14.6687 4.01161 14.3341 3.67706C13.9994 3.3425 13.5922 3.17522 13.1127 3.17522C12.6332 3.17522 12.226 3.3425 11.8913 3.67706C11.5567 4.01161 11.3895 4.41875 11.3895 4.89846C11.3895 5.37799 11.5567 5.78504 11.8913 6.1196C12.226 6.45416 12.6332 6.62144 13.1127 6.62144ZM16.2123 23.7004C15.9531 23.7004 15.6968 23.6689 15.4432 23.6061C15.1899 23.5431 14.9454 23.4501 14.7097 23.3272C14.7839 23.2112 14.8651 23.0746 14.9534 22.9174C15.0416 22.7602 15.1168 22.6157 15.1791 22.4839C15.3586 22.5715 15.5389 22.6379 15.72 22.683C15.9008 22.728 16.0824 22.7505 16.2647 22.7505C16.9914 22.7505 17.6154 22.4871 18.1368 21.9602C18.6583 21.4331 18.919 20.8098 18.919 20.0902C18.919 19.7457 18.8543 19.3724 18.725 18.9705C18.5955 18.5687 18.4353 18.0736 18.2445 17.4852L18.4357 17.1631C19.3705 16.9893 20.2581 16.7292 21.0984 16.3826C21.9387 16.0362 22.3589 15.282 22.3589 14.1201C22.3589 13.2169 22.0425 12.5429 21.4096 12.098C20.7765 11.6529 20.0563 11.4303 19.249 11.4303C18.5145 11.4303 17.6532 11.555 16.6652 11.8043C15.6774 12.0538 14.5411 12.3922 13.2564 12.8194L13.0092 11.9073C14.2465 11.5081 15.3687 11.1677 16.3756 10.8861C17.3826 10.6046 18.299 10.4638 19.1249 10.4638C20.204 10.4638 21.1669 10.7798 22.0136 11.412C22.8603 12.0443 23.2836 12.9456 23.2836 14.116C23.2836 14.6363 23.1744 15.1334 22.9561 15.6073C22.7377 16.0812 22.4301 16.4956 22.0333 16.8505C22.7734 16.8511 23.384 17.1052 23.865 17.613C24.3459 18.1209 24.5864 18.729 24.5864 19.4373C24.5864 20.1658 24.3309 20.7923 23.8199 21.3168C23.3087 21.8412 22.683 22.1033 21.9428 22.1033C21.4881 22.1033 21.0663 21.9968 20.6774 21.7837C20.2886 21.5704 19.9849 21.2633 19.7664 20.8623C19.5489 21.6729 19.1176 22.3486 18.4723 22.8893C17.8272 23.43 17.0739 23.7004 16.2123 23.7004ZM21.9661 21.1789C22.4334 21.1789 22.8329 21.0092 23.1645 20.6699C23.496 20.3306 23.6617 19.9259 23.6617 19.4556C23.6617 18.9881 23.4914 18.5795 23.1509 18.2299C22.8101 17.88 22.4061 17.7051 21.9387 17.7051C21.4712 17.7051 21.0672 17.8754 20.7266 18.2162C20.3859 18.5568 20.2155 18.9608 20.2155 19.4283C20.2155 19.8958 20.3904 20.3044 20.7403 20.6541C21.09 21.0039 21.4985 21.1789 21.9661 21.1789Z" fill="#EBFFFF"/>
</svg>
