<svg width="18" height="18" viewBox="0 0 18 18" fill="none" xmlns="http://www.w3.org/2000/svg">
<path d="M5.87025 12.1298L10.6731 10.6731L12.1298 5.87025L7.32694 7.32694L5.87025 12.1298ZM8.99831 9.98081C8.72544 9.98081 8.49406 9.88525 8.30419 9.69413C8.11419 9.50313 8.01919 9.27119 8.01919 8.99831C8.01919 8.72544 8.11475 8.49406 8.30588 8.30419C8.49688 8.11419 8.72881 8.01919 9.00169 8.01919C9.27456 8.01919 9.50594 8.11475 9.69581 8.30587C9.88581 8.49687 9.98081 8.72881 9.98081 9.00169C9.98081 9.27456 9.88525 9.50594 9.69413 9.69581C9.50313 9.88581 9.27119 9.98081 8.99831 9.98081ZM9.00131 16.125C8.01581 16.125 7.0895 15.938 6.22237 15.564C5.35525 15.19 4.601 14.6824 3.95963 14.0413C3.31825 13.4002 2.81044 12.6462 2.43619 11.7795C2.06206 10.9128 1.875 9.98669 1.875 9.00131C1.875 8.01581 2.062 7.0895 2.436 6.22237C2.81 5.35525 3.31756 4.601 3.95869 3.95963C4.59981 3.31825 5.35375 2.81044 6.2205 2.43619C7.08725 2.06206 8.01331 1.875 8.99869 1.875C9.98419 1.875 10.9105 2.062 11.7776 2.436C12.6448 2.81 13.399 3.31756 14.0404 3.95869C14.6818 4.59981 15.1896 5.35375 15.5638 6.2205C15.9379 7.08725 16.125 8.01331 16.125 8.99869C16.125 9.98419 15.938 10.9105 15.564 11.7776C15.19 12.6448 14.6824 13.399 14.0413 14.0404C13.4002 14.6818 12.6462 15.1896 11.7795 15.5638C10.9128 15.9379 9.98669 16.125 9.00131 16.125ZM9 15C10.6673 15 12.0841 14.4168 13.2504 13.2504C14.4168 12.0841 15 10.6673 15 9C15 7.33275 14.4168 5.91594 13.2504 4.74956C12.0841 3.58319 10.6673 3 9 3C7.33275 3 5.91594 3.58319 4.74956 4.74956C3.58319 5.91594 3 7.33275 3 9C3 10.6673 3.58319 12.0841 4.74956 13.2504C5.91594 14.4168 7.33275 15 9 15Z" fill="white"/>
</svg>
