<svg width="25" height="25" viewBox="0 0 25 25" fill="none" xmlns="http://www.w3.org/2000/svg">
<path d="M21.5369 20.8758L17.9603 17.2993H8.08601C7.59428 17.2993 7.1733 17.1241 6.82308 16.7739C6.47285 16.4239 6.29774 16.0029 6.29774 15.511V14.8891H17.2995C17.8019 14.8891 18.2319 14.7102 18.5898 14.3524C18.9476 13.9946 19.1265 13.5644 19.1265 13.0619V6.06449H19.7486C20.2403 6.06449 20.6613 6.2396 21.0115 6.58983C21.3617 6.94005 21.5369 7.36103 21.5369 7.85277V20.8758ZM4.23732 12.7822L5.66804 11.3515H15.278C15.3687 11.3515 15.4431 11.3223 15.5014 11.2641C15.5597 11.2058 15.5888 11.1312 15.5888 11.0404V4.35404C15.5888 4.26324 15.5597 4.1887 15.5014 4.13042C15.4431 4.07213 15.3687 4.04298 15.278 4.04298H4.54838C4.45775 4.04298 4.38321 4.07213 4.32475 4.13042C4.26646 4.1887 4.23732 4.26324 4.23732 4.35404V12.7822ZM2.72119 16.4442V4.35404C2.72119 3.85153 2.90009 3.42137 3.2579 3.06356C3.61571 2.70576 4.04587 2.52686 4.54838 2.52686H15.278C15.7804 2.52686 16.2104 2.70576 16.5683 3.06356C16.9261 3.42137 17.105 3.85153 17.105 4.35404V11.0404C17.105 11.5429 16.9261 11.9731 16.5683 12.3309C16.2104 12.6887 15.7804 12.8676 15.278 12.8676H6.29774L2.72119 16.4442Z" fill="white"/>
</svg>
