<svg width="25" height="25" viewBox="0 0 25 25" fill="none" xmlns="http://www.w3.org/2000/svg">
<path d="M7.52881 8.90882V7.63906H20.7204V8.90882H7.52881ZM7.52881 12.7641V11.4941H20.7204V12.7641H7.52881ZM7.52881 16.6191V15.3493H20.7204V16.6191H7.52881ZM4.23072 8.96719C4.04272 8.96719 3.88024 8.89888 3.74329 8.76226C3.60616 8.62547 3.5376 8.45777 3.5376 8.25916C3.5376 8.06593 3.60616 7.90455 3.74329 7.77501C3.88041 7.64546 4.04575 7.58069 4.23931 7.58069C4.43304 7.58069 4.5956 7.64622 4.727 7.77728C4.8584 7.90834 4.9241 8.07065 4.9241 8.26421C4.9241 8.45945 4.85764 8.62547 4.72473 8.76226C4.59181 8.89888 4.42714 8.96719 4.23072 8.96719ZM4.23072 12.8126C4.04272 12.8126 3.88024 12.745 3.74329 12.6097C3.60616 12.4746 3.5376 12.3116 3.5376 12.1207C3.5376 11.9216 3.60616 11.756 3.74329 11.624C3.88041 11.492 4.04575 11.4261 4.23931 11.4261C4.43304 11.4261 4.5956 11.4928 4.727 11.6262C4.8584 11.7595 4.9241 11.9282 4.9241 12.1324C4.9241 12.3155 4.85764 12.4747 4.72473 12.6099C4.59181 12.745 4.42714 12.8126 4.23072 12.8126ZM4.23072 16.6775C4.04272 16.6775 3.88024 16.6091 3.74329 16.4723C3.60616 16.3355 3.5376 16.1678 3.5376 15.9692C3.5376 15.7761 3.60616 15.6148 3.74329 15.4853C3.88041 15.3557 4.04575 15.291 4.23931 15.291C4.43304 15.291 4.5956 15.3564 4.727 15.4873C4.8584 15.6184 4.9241 15.7808 4.9241 15.9745C4.9241 16.1696 4.85764 16.3355 4.72473 16.4723C4.59181 16.6091 4.42714 16.6775 4.23072 16.6775Z" fill="white"/>
</svg>
