<svg width="25" height="25" viewBox="0 0 25 25" fill="none" xmlns="http://www.w3.org/2000/svg">
<path d="M2.52686 18.6795V17.1634H12.4108V18.6795H2.52686ZM2.52686 13.7326V12.2165H7.30847V13.7326H2.52686ZM2.52686 8.78577V7.26964H7.30847V8.78577H2.52686ZM20.6661 18.699L16.7552 14.8172C16.3703 15.0972 15.9507 15.3103 15.4966 15.4567C15.0424 15.6031 14.5808 15.6763 14.1116 15.6763C12.8451 15.6763 11.7656 15.2339 10.8731 14.349C9.98048 13.4639 9.53415 12.3886 9.53415 11.1231C9.53415 9.85784 9.98065 8.78265 10.8737 7.89757C11.7668 7.01249 12.8469 6.56995 14.1139 6.56995C15.381 6.56995 16.4603 7.01249 17.3518 7.89757C18.2433 8.78265 18.689 9.85624 18.689 11.1183C18.689 11.5875 18.6158 12.0492 18.4695 12.5033C18.3231 12.9575 18.1067 13.3737 17.8203 13.7521L21.7312 17.6339L20.6661 18.699ZM14.1116 14.1602C14.962 14.1602 15.6848 13.8654 16.2802 13.2758C16.8755 12.6862 17.1732 11.9686 17.1732 11.1231C17.1732 10.2776 16.8755 9.56009 16.2802 8.97048C15.6848 8.38088 14.962 8.08608 14.1116 8.08608C13.2612 8.08608 12.5384 8.38088 11.943 8.97048C11.3479 9.56009 11.0503 10.2776 11.0503 11.1231C11.0503 11.9686 11.3479 12.6862 11.943 13.2758C12.5384 13.8654 13.2612 14.1602 14.1116 14.1602Z" fill="white"/>
</svg>
