<svg width="33" height="33" viewBox="0 0 33 33" fill="none" xmlns="http://www.w3.org/2000/svg">
<path d="M20.6219 27.2132L12.1829 24.2451L6.84867 26.3308C6.52062 26.4756 6.20782 26.4524 5.91028 26.2612C5.61251 26.07 5.46362 25.7896 5.46362 25.4201V8.74188C5.46362 8.49852 5.5227 8.2761 5.64085 8.07463C5.759 7.87338 5.92929 7.73326 6.15171 7.65427L12.1829 5.56885L20.6219 8.51411L25.9333 6.44611C26.2614 6.30474 26.5742 6.31566 26.8717 6.47889C27.1695 6.64212 27.3184 6.89971 27.3184 7.25166V24.212C27.3184 24.4542 27.2461 24.6651 27.1015 24.8447C26.9572 25.0246 26.7727 25.1522 26.548 25.2275L20.6219 27.2132ZM19.9878 25.7913V9.42313L12.7942 6.93306V23.3012L19.9878 25.7913ZM21.1437 25.7913L26.1624 24.1437V7.54773L21.1437 9.42313V25.7913ZM6.61953 25.2118L11.6383 23.3012V6.93306L6.61953 8.63329V25.2118Z" fill="#EBFFFF"/>
</svg>
