<svg width="25" height="25" viewBox="0 0 25 25" fill="none" xmlns="http://www.w3.org/2000/svg">
<path d="M4.60268 20.7204L3.5376 19.6553L11.2504 11.9269L6.8324 10.8383L11.4467 7.9733L11.0465 2.52686L15.2098 6.04124L20.2403 3.99245L18.2168 9.03838L21.7311 13.1863L16.2847 12.8113L13.4041 17.4256L12.3059 13.0076L4.60268 20.7204ZM5.19953 7.48333L3.5376 5.8214L5.19953 4.15973L6.86146 5.8214L5.19953 7.48333ZM14.0242 13.5792L15.4703 11.2231L18.2382 11.4293L16.45 9.30471L17.49 6.74271L14.928 7.78277L12.8034 6.00991L13.0096 8.76244L10.6634 10.2242L13.3457 10.887L14.0242 13.5792ZM18.4366 20.7204L16.7747 19.0585L18.4366 17.3965L20.0983 19.0585L18.4366 20.7204Z" fill="white"/>
</svg>
