<svg width="69" height="69" viewBox="0 0 69 69" fill="none" xmlns="http://www.w3.org/2000/svg">
<g clip-path="url(#clip0_564_4553)">
<path d="M63.2808 35.7361L68.5729 12.9026L63.68 11.7686C58.1469 10.4862 52.5272 10.326 46.977 11.2925C42.7211 12.0335 38.6499 13.4112 34.8319 15.394L13.8965 10.5418L6.75322 41.3626L1.97926 47.1305L0 55.6703L55.6703 68.5729L57.6496 60.0331L55.8997 52.7532L60.0189 34.9801L63.2808 35.7361ZM6.53802 46.8742L8.92499 43.9902L52.7935 54.1576L53.6685 57.7975L6.53802 46.8742ZM36.4941 57.2542L34.1071 60.1381L23.0754 57.5813L22.2004 53.9414L36.4941 57.2542ZM23.3941 43.9066C28.0583 27.6521 44.7521 17.6932 61.412 21.5544L63.043 21.9324L62.2869 25.1943L60.656 24.8163C53.1919 23.0864 45.5009 24.3666 38.9997 28.4212C32.9744 32.1791 28.6414 37.9039 26.662 44.664L23.3941 43.9066ZM52.9265 50.7512L36.4734 46.9379C39.2724 38.4051 47.8457 33.0581 56.7398 34.2982L52.9265 50.7512ZM59.144 31.3402C47.8816 28.7299 36.5967 35.3207 33.1991 46.1791L29.9308 45.4216C33.7521 32.7647 46.8384 25.051 59.9 28.0783L61.5309 28.4563L60.7749 31.7182L59.144 31.3402ZM62.924 15.0305L64.555 15.4085L63.799 18.6705L62.168 18.2925C52.9613 16.1586 43.4748 17.7379 35.4558 22.7391C27.9123 27.4438 22.5179 34.6476 20.1283 43.1497L16.8632 42.3929C22.3675 22.5409 42.6662 10.3354 62.924 15.0305ZM30.6684 17.8661C26.5632 20.6279 23.0141 24.0467 20.108 28.0501C17.1247 32.1599 14.9391 36.7235 13.5978 41.6361L10.3039 40.8727L16.4024 14.5598L30.6684 17.8661ZM4.77396 49.9025L18.5533 53.0961L19.4283 56.736L4.01794 53.1644L4.77396 49.9025ZM37.7539 60.9833L40.1409 58.0994L53.9204 61.2931L53.1644 64.555L37.7539 60.9833Z" fill="white"/>
</g>
<defs>
<clipPath id="clip0_564_4553">
<rect width="57.146" height="57.146" fill="white" transform="translate(12.9026) rotate(13.0489)"/>
</clipPath>
</defs>
</svg>
