<svg width="73" height="74" viewBox="0 0 73 74" fill="none" xmlns="http://www.w3.org/2000/svg">
<g clip-path="url(#clip0_564_4473)">
<path d="M61.3662 13.7157L58.6866 13.7745L57.846 0.000429173L45.528 5.88752L44.2883 3.47943L20.2143 18.1352C15.4752 21.0234 11.6879 25.4761 9.55044 30.6733C7.33943 36.049 6.9378 41.8792 8.38895 47.5337C9.55498 52.0773 11.8778 56.2192 15.1244 59.5607L15.0179 73.3642L26.9055 66.6221C31.3593 67.896 36.0603 67.964 40.5515 66.8114C46.1411 65.377 50.9903 62.2126 54.575 57.6604C58.0408 53.2593 60.0682 47.7518 60.2839 42.1516L61.3662 13.7157ZM18.5572 44.9242C16.652 37.5005 20.2207 29.7465 27.0429 26.4869L34.1898 23.0714L19.6642 47.9534C19.1983 46.9893 18.8274 45.9773 18.5572 44.9242ZM39.8419 20.3701L45.494 17.669L22.2442 57.4956C21.5085 56.5229 20.6507 55.6504 19.6864 54.8961L39.8419 20.3701ZM48.8984 25.7987L28.743 60.3246C27.6264 59.8315 26.4584 59.4898 25.263 59.3051L48.5129 19.4783L48.8984 25.7987ZM49.2841 32.1188L49.7716 40.1096C50.2379 47.738 45.25 54.6417 37.9116 56.525C36.8706 56.7921 35.8168 56.9501 34.7585 57.0009L49.2841 32.1188ZM18.6334 58.6614C19.4765 59.5324 20.1679 60.5465 20.6779 61.672L21.1874 62.7962L22.4051 62.7072C23.6242 62.6182 24.8341 62.7438 25.9935 63.073L18.5668 67.2852L18.6334 58.6614ZM39.6715 63.3826C36.7476 64.133 33.7213 64.2865 30.7605 63.8493L32.7102 60.5096C34.7505 60.6525 36.7909 60.4672 38.7916 59.9538C47.7483 57.6552 53.836 49.226 53.2667 39.9115L51.4954 10.879L25.5312 23.2877C17.2009 27.2678 12.8424 36.7332 15.1678 45.7941C15.6872 47.818 16.5097 49.7192 17.6158 51.462L15.6662 54.8018C13.8621 52.3832 12.5376 49.6218 11.7784 46.6639C9.26355 36.8647 13.4814 26.3798 22.0347 21.1673L42.9129 8.45713L43.9879 10.5453L54.6708 5.43978L55.3996 17.3852L57.7234 17.3343L56.7848 41.9952C56.3955 52.1018 49.3583 60.8966 39.6715 63.3826Z" fill="#002834"/>
<path d="M7.25195 18.4666L10.6414 17.5968L11.5213 21.0256L8.13191 21.8955L7.25195 18.4666Z" fill="#002834"/>
<path d="M11.0156 12.0186L14.4051 11.1488L15.285 14.5776L11.8956 15.4475L11.0156 12.0186Z" fill="#002834"/>
<path d="M61.9707 51.2642L65.3601 50.3944L66.2401 53.8232L62.8507 54.6931L61.9707 51.2642Z" fill="#002834"/>
<path d="M65.7344 44.8162L69.1238 43.9464L70.0038 47.3752L66.6143 48.2451L65.7344 44.8162Z" fill="#002834"/>
</g>
<defs>
<clipPath id="clip0_564_4473">
<rect width="59.7208" height="60.4152" fill="white" transform="translate(0 14.8453) rotate(-14.3934)"/>
</clipPath>
</defs>
</svg>
