<svg width="24" height="24" viewBox="0 0 24 24" fill="none" xmlns="http://www.w3.org/2000/svg">
<path d="M3 20V5C3 4.45 3.19583 3.97917 3.5875 3.5875C3.97917 3.19583 4.45 3 5 3H17C17.55 3 18.0208 3.19583 18.4125 3.5875C18.8042 3.97917 19 4.45 19 5V10.075C18.8333 10.0417 18.6667 10.0208 18.5 10.0125C18.3333 10.0042 18.1667 10 18 10C17.8333 10 17.6667 10.0042 17.5 10.0125C17.3333 10.0208 17.1667 10.0417 17 10.075V5H5V15H12.075C12.0417 15.1667 12.0208 15.3333 12.0125 15.5C12.0042 15.6667 12 15.8333 12 16C12 16.1667 12.0042 16.3333 12.0125 16.5C12.0208 16.6667 12.0417 16.8333 12.075 17H6L3 20ZM7 9H15V7H7V9ZM7 13H12V11H7V13ZM17 20V17H14V15H17V12H19V15H22V17H19V20H17Z" fill="white"/>
</svg>
