<svg width="93" height="93" viewBox="0 0 93 93" fill="none" xmlns="http://www.w3.org/2000/svg">
<g clip-path="url(#clip0_564_4426)">
<path d="M15.2802 28.5951L20.0197 34.7072L13.9076 39.4467L28.1035 57.7537L31.0491 58.1263L30.6765 61.072L35.2127 66.9219L38.1584 67.2945L37.7858 70.2401L42.5026 76.323L33.3345 83.4323L35.7042 86.4883C38.3176 89.8585 43.1856 90.4743 46.5558 87.8609L80.3761 61.6357C83.7463 59.0223 84.362 54.1543 81.7487 50.7841L87.8608 46.0446L52.1565 0.000125408L15.2802 28.5951ZM44.1861 84.8048C42.501 86.1115 40.067 85.8037 38.7603 84.1186L69.5245 60.2631C70.3871 61.3755 71.4955 62.1879 72.7145 62.6831L44.1861 84.8048ZM53.8329 21.0946L53.1761 26.2876L58.3691 26.9444L60.9422 30.2627L60.2853 35.4557L65.4784 36.1126L78.6926 53.1538C79.9993 54.8389 79.6914 57.2729 78.0063 58.5796C76.3212 59.8863 73.8872 59.5784 72.5805 57.8933L70.2108 54.8373L45.5587 73.9533L41.8234 69.1362L42.4802 63.9432L37.2872 63.2863L34.7141 59.9681L35.371 54.775L30.178 54.1182L19.3334 40.133L50.0977 16.2775L53.8329 21.0946ZM82.435 45.3583L79.3789 47.728L67.5528 32.477L64.6072 32.1044L64.9798 29.1588L60.4436 23.3089L57.4979 22.9363L57.8705 19.9906L50.784 10.8517L23.0758 32.3374L20.706 29.2814L51.4702 5.42592L82.435 45.3583Z" fill="#063746"/>
<path d="M33.3203 39.2378L45.7482 29.6008L48.118 32.6569L35.6901 42.2938L33.3203 39.2378Z" fill="#063746"/>
<path d="M38.0596 45.3496L50.4875 35.7126L52.8572 38.7687L40.4293 48.4057L38.0596 45.3496Z" fill="#063746"/>
<path d="M42.7988 51.4619L55.2268 41.8249L57.5965 44.881L45.1686 54.518L42.7988 51.4619Z" fill="#063746"/>
<path d="M47.5386 57.5742L59.9665 47.9372L62.3363 50.9933L49.9083 60.6303L47.5386 57.5742Z" fill="#063746"/>
</g>
<defs>
<clipPath id="clip0_564_4426">
<rect width="66" height="66" fill="white" transform="translate(0 40.4438) rotate(-37.7911)"/>
</clipPath>
</defs>
</svg>
