<svg width="85" height="85" viewBox="0 0 85 85" fill="none" xmlns="http://www.w3.org/2000/svg">
<g clip-path="url(#clip0_564_4435)">
<path d="M57.5826 70.8742L59.472 56.5935L48.6569 48.0801L58.2252 35.925L60.8323 18.4696L44.4772 25.103L34.909 37.2581L24.094 28.7448L10.6564 33.935L16.1555 38.2638L5.4996 51.8007L41.4275 80.0823L52.0834 66.5454L57.5826 70.8742ZM54.9159 64.2698L41.2118 53.4824L42.0216 47.3621L55.7256 58.1495L54.9159 64.2698ZM43.1578 43.7513L51.4279 33.2452C52.0236 34.2979 52.7548 35.2671 53.6084 36.1325L45.9074 45.9157L43.1578 43.7513ZM55.1818 32.5441C54.4651 31.5784 53.9191 30.4903 53.5692 29.3148L53.2195 28.1406L51.996 28.0765C50.7712 28.0124 49.5853 27.7371 48.4782 27.2672L56.4531 24.0327L55.1818 32.5441ZM45.3597 29.6393C46.4014 30.2659 47.5152 30.749 48.6783 31.0809L40.4082 41.5869L37.6586 39.4225L45.3597 29.6393ZM23.4612 32.7518L37.1653 43.5393L31.4063 45.7637L17.7022 34.9762L23.4612 32.7518ZM18.9051 40.4282L30.7735 49.7707L35.3609 47.9989L24.2783 62.0777L10.4388 51.1836L18.9051 40.4282ZM40.8675 75.1363L27.0279 64.2421L38.1104 50.1633L37.4654 55.0384L49.3338 64.3809L40.8675 75.1363Z" fill="white"/>
</g>
<defs>
<clipPath id="clip0_564_4435">
<rect width="59.7208" height="60.4152" fill="white" transform="translate(37.3691) rotate(38.2089)"/>
</clipPath>
</defs>
</svg>
